<svg xmlns="http://www.w3.org/2000/svg" width="600" height="193">
  <rect width="600" height="193" rx="6" fill="#0d1117"/>
  <text x="36" y="22" fill="#c9d1d9" font-family="-apple-system, BlinkMacSystemFont, 'Segoe UI', Helvetica, Arial, sans-serif" font-size="14" font-weight="600">Claude Code Activity</text>
  <text x="36" y="40" fill="#8b949e" font-family="-apple-system, BlinkMacSystemFont, 'Segoe UI', Helvetica, Arial, sans-serif" font-size="11">1.4B total tokens  |  691M generated  |  4,819 sessions  |  65 active days</text>
  <text x="36" y="51" fill="#8b949e" font-family="-apple-system, BlinkMacSystemFont, 'Segoe UI', Helvetica, Arial, sans-serif" font-size="10" font-weight="normal">Dec</text>
  <text x="50" y="51" fill="#8b949e" font-family="-apple-system, BlinkMacSystemFont, 'Segoe UI', Helvetica, Arial, sans-serif" font-size="10" font-weight="normal">Jan</text>
  <text x="106" y="51" fill="#8b949e" font-family="-apple-system, BlinkMacSystemFont, 'Segoe UI', Helvetica, Arial, sans-serif" font-size="10" font-weight="normal">Feb</text>
  <text x="162" y="51" fill="#8b949e" font-family="-apple-system, BlinkMacSystemFont, 'Segoe UI', Helvetica, Arial, sans-serif" font-size="10" font-weight="normal">Mar</text>
  <text x="0" y="79" fill="#8b949e" font-family="-apple-system, BlinkMacSystemFont, 'Segoe UI', Helvetica, Arial, sans-serif" font-size="10" font-weight="normal">Mon</text>
  <text x="0" y="107" fill="#8b949e" font-family="-apple-system, BlinkMacSystemFont, 'Segoe UI', Helvetica, Arial, sans-serif" font-size="10" font-weight="normal">Wed</text>
  <text x="0" y="135" fill="#8b949e" font-family="-apple-system, BlinkMacSystemFont, 'Segoe UI', Helvetica, Arial, sans-serif" font-size="10" font-weight="normal">Fri</text>
  <rect x="36" y="55" width="11" height="11" rx="2" fill="#161b22">
    <title>No activity on 2025-12-28</title>
  </rect>
  <rect x="36" y="69" width="11" height="11" rx="2" fill="#161b22">
    <title>No activity on 2025-12-29</title>
  </rect>
  <rect x="36" y="83" width="11" height="11" rx="2" fill="#161b22">
    <title>No activity on 2025-12-30</title>
  </rect>
  <rect x="36" y="97" width="11" height="11" rx="2" fill="#161b22">
    <title>No activity on 2025-12-31</title>
  </rect>
  <rect x="36" y="111" width="11" height="11" rx="2" fill="#161b22">
    <title>No activity on 2026-01-01</title>
  </rect>
  <rect x="36" y="125" width="11" height="11" rx="2" fill="#161b22">
    <title>No activity on 2026-01-02</title>
  </rect>
  <rect x="36" y="139" width="11" height="11" rx="2" fill="#8c1535">
    <title>491 messages on 2026-01-03</title>
  </rect>
  <rect x="50" y="55" width="11" height="11" rx="2" fill="#5e1a2a">
    <title>84 messages on 2026-01-04</title>
  </rect>
  <rect x="50" y="69" width="11" height="11" rx="2" fill="#5e1a2a">
    <title>3 messages on 2026-01-05</title>
  </rect>
  <rect x="50" y="83" width="11" height="11" rx="2" fill="#161b22">
    <title>No activity on 2026-01-06</title>
  </rect>
  <rect x="50" y="97" width="11" height="11" rx="2" fill="#5e1a2a">
    <title>15 messages on 2026-01-07</title>
  </rect>
  <rect x="50" y="111" width="11" height="11" rx="2" fill="#161b22">
    <title>No activity on 2026-01-08</title>
  </rect>
  <rect x="50" y="125" width="11" height="11" rx="2" fill="#CC103C">
    <title>2,293 messages on 2026-01-09</title>
  </rect>
  <rect x="50" y="139" width="11" height="11" rx="2" fill="#5e1a2a">
    <title>77 messages on 2026-01-10</title>
  </rect>
  <rect x="64" y="55" width="11" height="11" rx="2" fill="#8c1535">
    <title>405 messages on 2026-01-11</title>
  </rect>
  <rect x="64" y="69" width="11" height="11" rx="2" fill="#5e1a2a">
    <title>139 messages on 2026-01-12</title>
  </rect>
  <rect x="64" y="83" width="11" height="11" rx="2" fill="#161b22">
    <title>No activity on 2026-01-13</title>
  </rect>
  <rect x="64" y="97" width="11" height="11" rx="2" fill="#161b22">
    <title>No activity on 2026-01-14</title>
  </rect>
  <rect x="64" y="111" width="11" height="11" rx="2" fill="#161b22">
    <title>No activity on 2026-01-15</title>
  </rect>
  <rect x="64" y="125" width="11" height="11" rx="2" fill="#161b22">
    <title>No activity on 2026-01-16</title>
  </rect>
  <rect x="64" y="139" width="11" height="11" rx="2" fill="#161b22">
    <title>No activity on 2026-01-17</title>
  </rect>
  <rect x="78" y="55" width="11" height="11" rx="2" fill="#161b22">
    <title>No activity on 2026-01-18</title>
  </rect>
  <rect x="78" y="69" width="11" height="11" rx="2" fill="#161b22">
    <title>No activity on 2026-01-19</title>
  </rect>
  <rect x="78" y="83" width="11" height="11" rx="2" fill="#5e1a2a">
    <title>16 messages on 2026-01-20</title>
  </rect>
  <rect x="78" y="97" width="11" height="11" rx="2" fill="#161b22">
    <title>No activity on 2026-01-21</title>
  </rect>
  <rect x="78" y="111" width="11" height="11" rx="2" fill="#161b22">
    <title>No activity on 2026-01-22</title>
  </rect>
  <rect x="78" y="125" width="11" height="11" rx="2" fill="#5e1a2a">
    <title>3 messages on 2026-01-23</title>
  </rect>
  <rect x="78" y="139" width="11" height="11" rx="2" fill="#161b22">
    <title>No activity on 2026-01-24</title>
  </rect>
  <rect x="92" y="55" width="11" height="11" rx="2" fill="#5e1a2a">
    <title>47 messages on 2026-01-25</title>
  </rect>
  <rect x="92" y="69" width="11" height="11" rx="2" fill="#161b22">
    <title>No activity on 2026-01-26</title>
  </rect>
  <rect x="92" y="83" width="11" height="11" rx="2" fill="#161b22">
    <title>No activity on 2026-01-27</title>
  </rect>
  <rect x="92" y="97" width="11" height="11" rx="2" fill="#5e1a2a">
    <title>144 messages on 2026-01-28</title>
  </rect>
  <rect x="92" y="111" width="11" height="11" rx="2" fill="#161b22">
    <title>No activity on 2026-01-29</title>
  </rect>
  <rect x="92" y="125" width="11" height="11" rx="2" fill="#161b22">
    <title>No activity on 2026-01-30</title>
  </rect>
  <rect x="92" y="139" width="11" height="11" rx="2" fill="#5e1a2a">
    <title>122 messages on 2026-01-31</title>
  </rect>
  <rect x="106" y="55" width="11" height="11" rx="2" fill="#5e1a2a">
    <title>27 messages on 2026-02-01</title>
  </rect>
  <rect x="106" y="69" width="11" height="11" rx="2" fill="#161b22">
    <title>No activity on 2026-02-02</title>
  </rect>
  <rect x="106" y="83" width="11" height="11" rx="2" fill="#161b22">
    <title>No activity on 2026-02-03</title>
  </rect>
  <rect x="106" y="97" width="11" height="11" rx="2" fill="#161b22">
    <title>No activity on 2026-02-04</title>
  </rect>
  <rect x="106" y="111" width="11" height="11" rx="2" fill="#161b22">
    <title>No activity on 2026-02-05</title>
  </rect>
  <rect x="106" y="125" width="11" height="11" rx="2" fill="#5e1a2a">
    <title>85 messages on 2026-02-06</title>
  </rect>
  <rect x="106" y="139" width="11" height="11" rx="2" fill="#8c1535">
    <title>280 messages on 2026-02-07</title>
  </rect>
  <rect x="120" y="55" width="11" height="11" rx="2" fill="#CC103C">
    <title>2,828 messages on 2026-02-08</title>
  </rect>
  <rect x="120" y="69" width="11" height="11" rx="2" fill="#8c1535">
    <title>498 messages on 2026-02-09</title>
  </rect>
  <rect x="120" y="83" width="11" height="11" rx="2" fill="#8c1535">
    <title>915 messages on 2026-02-10</title>
  </rect>
  <rect x="120" y="97" width="11" height="11" rx="2" fill="#CC103C">
    <title>3,775 messages on 2026-02-11</title>
  </rect>
  <rect x="120" y="111" width="11" height="11" rx="2" fill="#CC103C">
    <title>1,603 messages on 2026-02-12</title>
  </rect>
  <rect x="120" y="125" width="11" height="11" rx="2" fill="#8c1535">
    <title>437 messages on 2026-02-13</title>
  </rect>
  <rect x="120" y="139" width="11" height="11" rx="2" fill="#CC103C">
    <title>4,384 messages on 2026-02-14</title>
  </rect>
  <rect x="134" y="55" width="11" height="11" rx="2" fill="#161b22">
    <title>No activity on 2026-02-15</title>
  </rect>
  <rect x="134" y="69" width="11" height="11" rx="2" fill="#5e1a2a">
    <title>16 messages on 2026-02-16</title>
  </rect>
  <rect x="134" y="83" width="11" height="11" rx="2" fill="#8c1535">
    <title>967 messages on 2026-02-17</title>
  </rect>
  <rect x="134" y="97" width="11" height="11" rx="2" fill="#8c1535">
    <title>240 messages on 2026-02-18</title>
  </rect>
  <rect x="134" y="111" width="11" height="11" rx="2" fill="#5e1a2a">
    <title>15 messages on 2026-02-19</title>
  </rect>
  <rect x="134" y="125" width="11" height="11" rx="2" fill="#161b22">
    <title>No activity on 2026-02-20</title>
  </rect>
  <rect x="134" y="139" width="11" height="11" rx="2" fill="#5e1a2a">
    <title>97 messages on 2026-02-21</title>
  </rect>
  <rect x="148" y="55" width="11" height="11" rx="2" fill="#5e1a2a">
    <title>153 messages on 2026-02-22</title>
  </rect>
  <rect x="148" y="69" width="11" height="11" rx="2" fill="#5e1a2a">
    <title>6 messages on 2026-02-23</title>
  </rect>
  <rect x="148" y="83" width="11" height="11" rx="2" fill="#161b22">
    <title>No activity on 2026-02-24</title>
  </rect>
  <rect x="148" y="97" width="11" height="11" rx="2" fill="#8c1535">
    <title>415 messages on 2026-02-25</title>
  </rect>
  <rect x="148" y="111" width="11" height="11" rx="2" fill="#ff2d55">
    <title>4,549 messages on 2026-02-26</title>
  </rect>
  <rect x="148" y="125" width="11" height="11" rx="2" fill="#8c1535">
    <title>1,495 messages on 2026-02-27</title>
  </rect>
  <rect x="148" y="139" width="11" height="11" rx="2" fill="#CC103C">
    <title>2,407 messages on 2026-02-28</title>
  </rect>
  <rect x="162" y="55" width="11" height="11" rx="2" fill="#8c1535">
    <title>1,196 messages on 2026-03-01</title>
  </rect>
  <rect x="162" y="69" width="11" height="11" rx="2" fill="#ff2d55">
    <title>4,812 messages on 2026-03-02</title>
  </rect>
  <rect x="162" y="83" width="11" height="11" rx="2" fill="#CC103C">
    <title>3,157 messages on 2026-03-03</title>
  </rect>
  <rect x="162" y="97" width="11" height="11" rx="2" fill="#ff2d55">
    <title>7,619 messages on 2026-03-04</title>
  </rect>
  <rect x="162" y="111" width="11" height="11" rx="2" fill="#CC103C">
    <title>2,023 messages on 2026-03-05</title>
  </rect>
  <rect x="162" y="125" width="11" height="11" rx="2" fill="#CC103C">
    <title>1,674 messages on 2026-03-06</title>
  </rect>
  <rect x="162" y="139" width="11" height="11" rx="2" fill="#CC103C">
    <title>3,233 messages on 2026-03-07</title>
  </rect>
  <rect x="176" y="55" width="11" height="11" rx="2" fill="#CC103C">
    <title>3,007 messages on 2026-03-08</title>
  </rect>
  <rect x="176" y="69" width="11" height="11" rx="2" fill="#8c1535">
    <title>312 messages on 2026-03-09</title>
  </rect>
  <rect x="176" y="83" width="11" height="11" rx="2" fill="#CC103C">
    <title>3,187 messages on 2026-03-10</title>
  </rect>
  <rect x="176" y="97" width="11" height="11" rx="2" fill="#8c1535">
    <title>1,077 messages on 2026-03-11</title>
  </rect>
  <rect x="176" y="111" width="11" height="11" rx="2" fill="#CC103C">
    <title>2,497 messages on 2026-03-12</title>
  </rect>
  <rect x="176" y="125" width="11" height="11" rx="2" fill="#ff2d55">
    <title>7,839 messages on 2026-03-13</title>
  </rect>
  <rect x="176" y="139" width="11" height="11" rx="2" fill="#CC103C">
    <title>2,920 messages on 2026-03-14</title>
  </rect>
  <rect x="190" y="55" width="11" height="11" rx="2" fill="#ff2d55">
    <title>4,865 messages on 2026-03-15</title>
  </rect>
  <rect x="190" y="69" width="11" height="11" rx="2" fill="#ff2d55">
    <title>8,147 messages on 2026-03-16</title>
  </rect>
  <rect x="190" y="83" width="11" height="11" rx="2" fill="#ff2d55">
    <title>5,744 messages on 2026-03-17</title>
  </rect>
  <rect x="190" y="97" width="11" height="11" rx="2" fill="#8c1535">
    <title>441 messages on 2026-03-18</title>
  </rect>
  <rect x="190" y="111" width="11" height="11" rx="2" fill="#161b22">
    <title>No activity on 2026-03-19</title>
  </rect>
  <rect x="190" y="125" width="11" height="11" rx="2" fill="#CC103C">
    <title>3,095 messages on 2026-03-20</title>
  </rect>
  <rect x="190" y="139" width="11" height="11" rx="2" fill="#8c1535">
    <title>393 messages on 2026-03-21</title>
  </rect>
  <rect x="204" y="55" width="11" height="11" rx="2" fill="#ff2d55">
    <title>18,819 messages on 2026-03-22</title>
  </rect>
  <rect x="204" y="69" width="11" height="11" rx="2" fill="#ff2d55">
    <title>4,646 messages on 2026-03-23</title>
  </rect>
  <rect x="204" y="83" width="11" height="11" rx="2" fill="#8c1535">
    <title>185 messages on 2026-03-24</title>
  </rect>
  <rect x="204" y="97" width="11" height="11" rx="2" fill="#ff2d55">
    <title>7,919 messages on 2026-03-25</title>
  </rect>
  <rect x="204" y="111" width="11" height="11" rx="2" fill="#ff2d55">
    <title>28,528 messages on 2026-03-26</title>
  </rect>
  <rect x="204" y="125" width="11" height="11" rx="2" fill="#ff2d55">
    <title>40,136 messages on 2026-03-27</title>
  </rect>
  <rect x="204" y="139" width="11" height="11" rx="2" fill="#ff2d55">
    <title>22,086 messages on 2026-03-28</title>
  </rect>
  <rect x="218" y="55" width="11" height="11" rx="2" fill="#ff2d55">
    <title>17,352 messages on 2026-03-29</title>
  </rect>
  <rect x="218" y="69" width="11" height="11" rx="2" fill="#ff2d55">
    <title>29,554 messages on 2026-03-30</title>
  </rect>
  <rect x="218" y="83" width="11" height="11" rx="2" fill="#ff2d55">
    <title>12,538 messages on 2026-03-31</title>
  </rect>
  <rect x="218" y="97" width="11" height="11" rx="2" fill="#CC103C">
    <title>2,368 messages on 2026-04-01</title>
  </rect>
  <text x="36" y="168" fill="#8b949e" font-family="-apple-system, BlinkMacSystemFont, 'Segoe UI', Helvetica, Arial, sans-serif" font-size="10" font-weight="normal">Less</text>
  <rect x="66" y="159" width="11" height="11" rx="2" fill="#161b22"/>
  <rect x="79" y="159" width="11" height="11" rx="2" fill="#5e1a2a"/>
  <rect x="92" y="159" width="11" height="11" rx="2" fill="#8c1535"/>
  <rect x="105" y="159" width="11" height="11" rx="2" fill="#CC103C"/>
  <rect x="118" y="159" width="11" height="11" rx="2" fill="#ff2d55"/>
  <text x="135" y="168" fill="#8b949e" font-family="-apple-system, BlinkMacSystemFont, 'Segoe UI', Helvetica, Arial, sans-serif" font-size="10" font-weight="normal">More</text>
  <text x="400" y="168" fill="#8b949e" font-family="-apple-system, BlinkMacSystemFont, 'Segoe UI', Helvetica, Arial, sans-serif" font-size="10" font-weight="normal">Current streak: 13d  |  Longest: 22d</text>
</svg>